<svg width="470.000000" height="143.000000" viewBox="0 0 470 143" fill="none" xmlns="http://www.w3.org/2000/svg" xmlns:xlink="http://www.w3.org/1999/xlink">
	<desc>
			Created with Pixso.
	</desc>
	<defs>
		<clipPath id="clip11_69">
			<rect id="404" width="470.000000" height="143.000000" fill="white" fill-opacity="0"/>
		</clipPath>
	</defs>
	<rect id="404" width="470.000000" height="143.000000" fill="#FFFFFF" fill-opacity="0"/>
	<g clip-path="url(#clip11_69)">
		<path id="Vector" d="M77.98 1.87L77.98 88.64L99.98 88.64L99.98 104.32L77.98 104.32L77.98 141.42L62.4 141.42L62.4 104.32L0 104.32L0 91.66L63.86 1.87L77.98 1.87ZM21.9 88.94L62.6 88.94L62.6 31.77L21.9 88.94Z" fill="#000000" fill-opacity="1.000000" fill-rule="nonzero"/>
		<path id="Vector" d="M447.99 1.87L447.99 88.64L470 88.64L470 104.32L447.99 104.32L447.99 141.42L432.41 141.42L432.41 104.32L370.01 104.32L370.01 91.66L433.88 1.87L447.99 1.87ZM391.91 88.94L432.61 88.94L432.61 31.77L391.91 88.94Z" fill="#000000" fill-opacity="1.000000" fill-rule="nonzero"/>
		<path id="Vector" d="M292.06 143L177.93 143C138.51 143 106.45 110.92 106.45 71.5C106.45 32.07 138.51 0 177.93 0L292.06 0C331.48 0 363.54 32.07 363.54 71.5C363.54 110.92 331.48 143 292.06 143ZM177.93 3.68C140.55 3.68 110.13 34.1 110.13 71.5C110.13 108.89 140.54 139.31 177.93 139.31L292.06 139.31C329.44 139.31 359.86 108.89 359.86 71.5C359.86 34.1 329.44 3.68 292.06 3.68L177.93 3.68ZM292.06 122.74L177.93 122.74C149.68 122.74 126.69 99.76 126.69 71.5C126.69 43.24 149.68 20.25 177.93 20.25L292.06 20.25C320.31 20.25 343.3 43.24 343.3 71.5C343.3 99.76 320.31 122.74 292.06 122.74ZM177.93 23.93C151.71 23.93 130.37 45.27 130.37 71.5C130.37 97.72 151.71 119.06 177.93 119.06L292.06 119.06C318.28 119.06 339.62 97.72 339.62 71.5C339.62 45.27 318.28 23.93 292.06 23.93L177.93 23.93Z" fill="#000000" fill-opacity="1.000000" fill-rule="nonzero"/>
	</g>
</svg>
