<?xml version="1.0" encoding="UTF-8"?>
  <svg fill="none" viewBox="0 0 390 114" xmlns="http://www.w3.org/2000/svg">
    <g clip-path="url(#a)">
      <path d="m67.617 111.17v-15.963c-8.0528 10.585-17.311 15.887-27.755 15.887-11.018 0-20.41-3.877-28.156-11.63h0.0765c-7.8616-7.7913-11.783-17.103-11.783-27.954s3.9212-20.162 11.783-27.973c7.7468-7.6963 17.1-11.535 28.08-11.535 10.979 0 20.123 5.4919 27.755 16.495v-48.496h12.089v111.17h-12.089zm-27.755-12.162c7.7468 0 14.289-2.6794 19.644-8.0573 5.4132-5.3779 8.1102-11.858 8.1102-19.44 0-7.5822-2.697-14.081-8.1102-19.44-5.3558-5.3779-11.898-8.0574-19.644-8.0574-7.7469 0-14.289 2.6795-19.644 8.0574-5.4133 5.3779-8.1103 11.858-8.1103 19.44 0 7.5823 2.697 14.081 8.1103 19.44 5.3558 5.3779 11.898 8.0573 19.644 8.0573z" fill="#000"/>
      <path d="m113.3 6.8221h12.089v13.017h-12.089v-13.017zm0 24.875h12.089v79.472h-12.089v-79.491 0.019z" fill="#000"/>
      <path d="m346.96 54.615c1.243 5.0168 6.829 8.6844 16.775 11.003 14.824 3.4586 23.394 10.205 25.727 20.219 0.364 1.4442 0.555 2.9645 0.555 4.5797 0 5.739-2.659 10.813-7.957 15.26-5.719 4.902-13.122 7.354-22.227 7.354-6.714 0-14.862-2.015-24.484-6.043l4.84-11.079c7.804 3.4015 14.327 5.112 19.568 5.112 1.243 0 2.238-0.057 2.964-0.152 4.936-0.456 8.818-1.9195 11.611-4.3329h-0.076c2.448-2.0144 3.672-4.1047 3.672-6.2711 0-0.266-0.095-0.8551-0.306-1.7863-1.243-4.8078-6.829-8.4754-16.775-11.003-14.92-4.1807-23.508-10.813-25.727-19.915l0.076 0.076c-0.42-1.8053-0.631-3.4396-0.631-4.8838 0-5.625 2.487-10.642 7.479-15.032v0.076c4.687-3.9717 10.31-6.4231 16.928-7.3542 1.932-0.2661 3.826-0.3801 5.701-0.3801 6.235 0 13.81 1.7293 22.685 5.1879l-4.361 11.231c-7.479-2.9455-13.562-4.4087-18.248-4.4087-0.727 0-1.97 0.114-3.749 0.304h0.076c-4.628 0.5131-8.301 1.9574-10.998 4.3328-2.238 2.0143-3.347 4.0476-3.347 6.119 0 0.5131 0.076 1.1402 0.229 1.8623v-0.076z" fill="#000"/>
      <path d="m197.25 112.1c-21.959 0-39.825-17.749-39.825-39.565v-5.929c0-21.816 17.866-39.565 39.825-39.565h74.446c21.959 0 39.824 17.749 39.824 39.565v5.929l-0.478 4.9978h-141.62l0.268 1.1592c2.869 12.713 14.48 21.93 27.583 21.93h78.157c8.033 0 15.665-3.4018 21.04-9.3688l9.335 6.8982c-7.594 8.8936-18.612 13.968-30.356 13.968h-78.157l-0.038-0.019zm0-73.6c-15.379 0-28.061 12.428-28.272 27.707v0.9692h130.99v-0.9692c-0.23-15.278-12.912-27.707-28.271-27.707h-74.446z" fill="#fff"/>
      <path d="m271.69 27.973c21.442 0 38.868 17.331 38.868 38.614v5.853l-0.268 2.8885-0.115 1.2542h-141.97l0.517 2.3184c2.965 13.131 14.958 22.671 28.52 22.671h78.156c8.015 0 15.628-3.2876 21.156-9.0455l7.804 5.7579c-7.383 8.2096-17.827 12.866-28.96 12.866h-78.156c-21.443 0-38.868-17.331-38.868-38.615v-5.929c0-21.302 17.444-38.614 38.868-38.614h74.446m-103.69 40.154h132.94v-1.9193c-0.248-15.792-13.351-28.638-29.246-28.638h-74.446c-15.896 0-28.998 12.846-29.228 28.638v1.9193m103.67-42.054h-74.446c-22.533 0-40.781 18.148-40.781 40.515v5.929c0 22.386 18.267 40.515 40.781 40.515h78.156c12.835 0 24.255-5.891 31.734-15.089l-10.846-8.0194c-5.011 5.929-12.51 9.7106-20.888 9.7106h-78.156c-13.007 0-23.91-9.0835-26.646-21.188h141.32c0.191-1.9763 0.382-3.9716 0.554-5.948v-5.929c0-22.386-18.267-40.515-40.78-40.515v0.019zm-101.76 40.154c0.21-14.784 12.376-26.756 27.315-26.756h74.446c14.939 0 27.104 11.972 27.314 26.756h-129.08z" fill="#000"/>
    </g>
  <defs>
  <clipPath id="a">
    <rect width="390" height="114" fill="#fff"/>
  </clipPath>
  </defs>
</svg>
